# xmcd CD database file
#
# Track frame offsets:
#	150
#	12931
#	33547
#	45819
#	62488
#	78940
#	95043
#	113930
#	131229
#	146459
#	163655
#	181471
#	203470
#
# Disc length: 3706 seconds
#
# Revision: 1
# Processed by: cddbd v1.4PL0 Copyright (c) Steve Scherf et al.
# Submitted via: CDex 1.50Beta6
#
DISCID=a70e780d
DTITLE=Joe Diffie - Greatest Hits
DYEAR=1998
DGENRE=Country
TTITLE0=Third Rock From The Sun
TTITLE1=John Deere Green
TTITLE2=Texas Size Heartache
TTITLE3=Ships That Don't Come In
TTITLE4=Pickup Man
TTITLE5=So Help Me Girl
TTITLE6=Poor Me
TTITLE7=Honky Tonk Attitude
TTITLE8=Home
TTITLE9=Prop Me Up Beside The Jukebox (If I Die)
TTITLE10=Bigger Than The Beatles
TTITLE11=Hurt Me All The Time
TTITLE12=DATA
EXTD=Enhanced CD YEAR: 1998
EXTT0=
EXTT1=
EXTT2=
EXTT3=
EXTT4=
EXTT5=
EXTT6=
EXTT7=
EXTT8=
EXTT9=
EXTT10=
EXTT11=
EXTT12=
PLAYORDER=
